<svg width="1024" height="1024" viewBox="0 0 1024 1024" fill="none" xmlns="http://www.w3.org/2000/svg">
  <defs>
    <linearGradient id="bg" x1="154" y1="72" x2="852" y2="944" gradientUnits="userSpaceOnUse">
      <stop stop-color="#0C071C"/>
      <stop offset="0.52" stop-color="#210C4D"/>
      <stop offset="1" stop-color="#041018"/>
    </linearGradient>
    <radialGradient id="cyanGlow" cx="0" cy="0" r="1" gradientUnits="userSpaceOnUse" gradientTransform="translate(352 302) rotate(90) scale(274)">
      <stop stop-color="#00F0FF" stop-opacity="0.85"/>
      <stop offset="1" stop-color="#00F0FF" stop-opacity="0"/>
    </radialGradient>
    <radialGradient id="pinkGlow" cx="0" cy="0" r="1" gradientUnits="userSpaceOnUse" gradientTransform="translate(708 706) rotate(90) scale(290)">
      <stop stop-color="#FF2D78" stop-opacity="0.72"/>
      <stop offset="1" stop-color="#FF2D78" stop-opacity="0"/>
    </radialGradient>
    <radialGradient id="amberGlow" cx="0" cy="0" r="1" gradientUnits="userSpaceOnUse" gradientTransform="translate(546 520) rotate(90) scale(238)">
      <stop stop-color="#FFB347" stop-opacity="0.42"/>
      <stop offset="1" stop-color="#FFB347" stop-opacity="0"/>
    </radialGradient>
    <filter id="shadow" x="199" y="149" width="682" height="672" filterUnits="userSpaceOnUse" color-interpolation-filters="sRGB">
      <feFlood flood-opacity="0" result="BackgroundImageFix"/>
      <feColorMatrix in="SourceAlpha" type="matrix" values="0 0 0 0 0 0 0 0 0 0 0 0 0 0 0 0 0 0 127 0" result="hardAlpha"/>
      <feOffset dy="18"/>
      <feGaussianBlur stdDeviation="24"/>
      <feComposite in2="hardAlpha" operator="out"/>
      <feColorMatrix type="matrix" values="0 0 0 0 0.0705882 0 0 0 0 0.0470588 0 0 0 0 0.145098 0 0 0 0.45 0"/>
      <feBlend mode="normal" in2="BackgroundImageFix" result="effect1_dropShadow_1_2"/>
      <feBlend mode="normal" in="SourceGraphic" in2="effect1_dropShadow_1_2" result="shape"/>
    </filter>
  </defs>

  <rect x="36" y="36" width="952" height="952" rx="240" fill="url(#bg)"/>
  <circle cx="352" cy="302" r="274" fill="url(#cyanGlow)"/>
  <circle cx="708" cy="706" r="290" fill="url(#pinkGlow)"/>
  <circle cx="546" cy="520" r="238" fill="url(#amberGlow)"/>
  <rect x="84" y="84" width="856" height="856" rx="190" stroke="white" stroke-opacity="0.16" stroke-width="8"/>

  <g filter="url(#shadow)">
    <circle cx="390" cy="644" r="140" fill="#00F0FF"/>
    <circle cx="585" cy="526" r="112" fill="#FF2D78"/>
    <rect x="518" y="214" width="92" height="398" rx="46" fill="#F5F8FF"/>
    <path d="M546 190C546 173.431 559.431 160 576 160H744C777.137 160 804 186.863 804 220V264C804 297.137 777.137 324 744 324H576C559.431 324 546 310.569 546 294V190Z" fill="#F5F8FF"/>
    <path d="M716 306L860 384L696 426L716 306Z" fill="#FF2D78"/>
  </g>
</svg>
